<svg xmlns="http://www.w3.org/2000/svg" width="30" height="30" viewBox="0 0 30 30"><path d="M28.389 23.663c-.318-3.438-5.094-5.54-5.854-5.857-.767-.317-.703-.891-.703-.891s.01-.228.063-.764c.126-1.251 1.019-2.419 1.019-2.419s1.615-1.793 1.338-4.904c-.439-4.882-4.457-4.839-4.457-4.839s-2.284-.022-3.597 2.058c-.168-.327-.362-.629-.582-.906l-1.246.993c.314.394.559.874.727 1.425l.509-.156c-.124.423-.221.89-.269 1.424-.101 1.122.048 2.064.275 2.821l-.524-.164c-.229.74-.548 1.259-.716 1.503l1.31.907c.147-.212.327-.511.506-.877.265.466.487.715.487.715s.889 1.168 1.02 2.419c.051.536.062.764.062.764s.062.574-.7.891c-.218.09-.765.33-1.437.699l.431-.806c-.604-.323-1.086-.533-1.32-.629l-.185-.111-1.127 1.126c.188.188.425.341.702.456.127.053.42.179.802.369-1.608.997-3.526 2.617-3.725 4.752 0 0-.056.722-.098 1.491h-.462v1.594h.432l.001.036h17.446c.059-.699-.128-3.12-.128-3.12zm-21.619-11.671c.284.898.666 1.547.938 1.933l1.304-.916c-.17-.241-.489-.755-.724-1.498l-1.518.481zm-4.52 11.999c-.046.455-.1 1.104-.099 1.612l.016.422.098.722h.725l-.015-.797.779-.073-.01-.275c-.001-.344.031-.86.092-1.451l-1.586-.16zm1.3-3.334c-.489.618-.843 1.264-1.052 1.92l1.521.48c.147-.472.41-.946.779-1.41l-1.248-.99zm7.634-15.813l-.303-1.564c-.519.1-1.297.33-2.057.858l.91 1.309c.53-.37 1.08-.532 1.45-.603zm-2.202 1.31l-1.252-.984c-.436.553-.77 1.212-.994 1.957l1.525.458c.168-.553.409-1.035.721-1.431zm5.53-2.037c-.764-.524-1.543-.748-2.062-.844l-.291 1.567c.369.068.92.226 1.455.592l.898-1.315zm-6.467 6.289c-.037-.281-.055-.572-.055-.863 0-.207.009-.421.029-.645l.021-.203-1.583-.187-.024.247c-.025.272-.036.535-.036.788 0 .359.022.718.067 1.067l1.581-.204zm4.931 5.841l1.585.149.018-.165c.041-.401.196-.87.451-1.355l-1.41-.742c-.354.674-.564 1.325-.627 1.935l-.017.178z"/><rect x="7.451" y="25.154" width="1.912" height="1.594"/><rect x="4.265" y="25.154" width="1.912" height="1.594"/><path d="M4.512 19.636l1.072 1.177c.408-.371.885-.735 1.416-1.081l-.867-1.336c-.606.393-1.152.81-1.621 1.24zm5.253-5.469l-1.414.733c.247.478.399.938.44 1.327l.017.189 1.588-.128-.02-.219c-.064-.601-.269-1.241-.611-1.902zm-1.124 2.903c-.24.099-.736.316-1.351.645l.752 1.404c.555-.297.995-.49 1.208-.579.258-.106.48-.247.661-.418l-1.094-1.159-.176.107z"/></svg>