<svg xmlns="http://www.w3.org/2000/svg" width="30" height="30" viewBox="0 0 30 30"><g fill-rule="evenodd" clip-rule="evenodd"><path opacity=".3" d="M13.003 1.188h-1.583l-1.067 4.106-1.112-4.106h-1.647l1.002 2.913c.504 1.458.816 2.557.958 3.307v4.235h1.565v-4.235l1.884-6.22zm4.183 7.932v-2.728c0-.833-.142-1.441-.438-1.835-.391-.533-.94-.799-1.648-.799-.704 0-1.252.266-1.643.799-.3.394-.442 1.002-.442 1.835v2.728c0 .828.142 1.442.442 1.832.39.531.939.798 1.643.798.708 0 1.257-.267 1.648-.798.295-.39.438-1.004.438-1.832zm-1.412.266c0 .721-.219 1.082-.674 1.082-.455 0-.673-.361-.673-1.082v-3.278c0-.72.219-1.081.673-1.081.455 0 .674.36.674 1.081v3.278zm6.632 2.257v-7.791h-1.412v5.955c-.312.442-.609.662-.891.662-.189 0-.301-.113-.332-.331-.017-.046-.017-.219-.017-.549v-5.737h-1.408v6.161c0 .55.048.922.126 1.158.14.394.455.579.909.579.514 0 1.05-.312 1.612-.957v.85h1.413z"/><path d="M13.002 1.019h-1.583l-1.067 4.105-1.111-4.105h-1.648l1.004 2.912c.501 1.458.815 2.557.956 3.308v4.233h1.566v-4.233l1.883-6.22zm4.184 7.931v-2.728c0-.833-.142-1.441-.438-1.835-.392-.533-.939-.799-1.647-.799-.704 0-1.253.266-1.644.799-.3.394-.442 1.002-.442 1.835v2.728c0 .828.142 1.441.442 1.833.39.531.94.797 1.644.797.708 0 1.255-.267 1.647-.797.295-.391.438-1.005.438-1.833zm-1.412.266c0 .721-.218 1.082-.673 1.082-.456 0-.674-.361-.674-1.082v-3.278c0-.721.219-1.08.674-1.08.455 0 .673.359.673 1.08v3.278zm6.633 2.256v-7.79h-1.413v5.954c-.312.442-.609.661-.892.661-.189 0-.299-.112-.331-.331-.017-.046-.017-.218-.017-.549v-5.734h-1.407v6.16c0 .549.046.923.124 1.158.141.395.456.58.91.58.514 0 1.05-.313 1.612-.958v.85h1.414zM17.558 19.382c-.229 0-.462.11-.696.34v4.699c.233.233.466.343.696.343.402 0 .607-.343.607-1.04v-3.29c0-.696-.205-1.052-.607-1.052zM22.741 19.382c-.466 0-.7.356-.7 1.07v.713h1.396v-.713c.001-.714-.233-1.07-.696-1.07zM26.157 15.463c-.282-1.229-1.289-2.135-2.499-2.271-2.866-.321-5.767-.322-8.655-.321-2.889-.001-5.789 0-8.655.321-1.211.135-2.216 1.042-2.499 2.271-.402 1.751-.407 3.661-.407 5.464 0 1.802 0 3.713.403 5.463.282 1.229 1.288 2.136 2.497 2.271 2.866.32 5.768.322 8.656.32 2.888.002 5.79 0 8.655-.32 1.21-.135 2.216-1.042 2.499-2.271.403-1.75.406-3.662.406-5.463 0-1.803.001-3.713-.401-5.464zm-16.121 1.576h-1.674v8.889h-1.553v-8.889h-1.643v-1.458h4.87v1.458zm4.22 8.889h-1.398v-.841c-.554.637-1.082.948-1.596.948-.45 0-.761-.183-.9-.574-.077-.233-.123-.602-.123-1.146v-6.096h1.396v5.676c0 .327 0 .498.012.542.034.217.14.327.328.327.28 0 .572-.216.882-.653v-5.892h1.398v7.709zm5.306-2.314c0 .713-.047 1.226-.141 1.553-.187.574-.56.867-1.117.867-.497 0-.976-.276-1.442-.854v.748h-1.397v-10.347h1.397v3.379c.45-.555.929-.836 1.442-.836.557 0 .93.293 1.117.871.094.311.141.82.141 1.55v3.069zm5.272-1.286h-2.793v1.366c0 .714.234 1.07.713 1.07.344 0 .545-.187.625-.56.012-.076.03-.386.03-.946h1.425v.204c0 .45-.017.76-.029.9-.047.309-.157.589-.326.837-.387.56-.96.836-1.69.836s-1.287-.264-1.69-.79c-.296-.385-.449-.994-.449-1.812v-2.701c0-.824.135-1.426.432-1.816.403-.527.959-.791 1.673-.791.7 0 1.256.263 1.647.791.293.391.432.992.432 1.816v1.596z"/></g></svg>