<svg xmlns="http://www.w3.org/2000/svg" width="30" height="30" viewBox="0 0 30 30"><path d="M13.002 1.019h-1.583l-1.067 4.105-1.111-4.105h-1.648l1.004 2.912c.501 1.458.815 2.557.956 3.308v4.233h1.566v-4.233l1.883-6.22zm4.184 7.931v-2.728c0-.833-.142-1.441-.438-1.835-.393-.533-.939-.799-1.647-.799-.704 0-1.253.266-1.644.799-.3.394-.442 1.002-.442 1.835v2.728c0 .828.142 1.441.442 1.833.39.531.94.797 1.644.797.708 0 1.254-.267 1.647-.797.295-.391.438-1.005.438-1.833zm-1.413.266c0 .721-.217 1.082-.672 1.082-.456 0-.674-.361-.674-1.082v-3.278c0-.721.219-1.08.674-1.08.456 0 .672.359.672 1.08v3.278zm6.634 2.256v-7.79h-1.413v5.954c-.312.442-.609.661-.893.661-.188 0-.299-.112-.33-.331-.018-.046-.018-.218-.018-.549v-5.734h-1.406v6.16c0 .549.045.923.123 1.158.141.395.456.58.91.58.514 0 1.051-.313 1.612-.958v.85l1.415-.001zm-4.848 7.91c-.229 0-.463.11-.697.341v4.698c.234.233.467.343.697.343.401 0 .606-.343.606-1.039v-3.291c0-.696-.205-1.052-.606-1.052zm5.182 0c-.466 0-.7.356-.7 1.07v.713h1.396v-.713c.001-.714-.233-1.07-.696-1.07zm3.416-3.919c-.282-1.229-1.289-2.135-2.499-2.271-2.866-.321-5.768-.322-8.655-.321-2.889-.001-5.789 0-8.655.321-1.211.135-2.216 1.042-2.499 2.271-.402 1.751-.407 3.661-.407 5.464 0 1.802 0 3.714.403 5.464.282 1.229 1.288 2.135 2.497 2.271 2.866.319 5.768.321 8.656.319 2.889.002 5.79 0 8.654-.319 1.211-.136 2.217-1.042 2.5-2.271.402-1.75.406-3.662.406-5.464.001-1.803.001-3.713-.401-5.464zm-16.121 1.576h-1.674v8.889h-1.553v-8.889h-1.643v-1.458h4.87v1.458zm4.22 8.889h-1.398v-.841c-.554.638-1.082.948-1.596.948-.45 0-.761-.184-.9-.574-.077-.232-.123-.602-.123-1.146v-6.096h1.396v5.676c0 .328 0 .498.012.543.034.217.14.326.328.326.28 0 .572-.216.882-.652v-5.893h1.398l.001 7.709zm5.306-2.314c0 .713-.047 1.226-.142 1.553-.187.574-.56.867-1.116.867-.498 0-.977-.276-1.443-.854v.748h-1.396v-10.347h1.396v3.379c.451-.556.93-.836 1.443-.836.557 0 .93.293 1.116.871.095.312.142.819.142 1.55v3.069zm5.272-1.286h-2.793v1.365c0 .715.234 1.07.713 1.07.344 0 .545-.187.625-.56.012-.076.03-.386.03-.946h1.425v.204c0 .45-.018.761-.029.899-.047.31-.156.59-.326.838-.387.56-.959.836-1.689.836s-1.287-.264-1.689-.79c-.297-.386-.449-.994-.449-1.812v-2.701c0-.824.135-1.426.432-1.816.402-.527.959-.791 1.673-.791.7 0 1.256.264 1.647.791.293.391.432.992.432 1.816v1.597h-.002z"/></svg>