<svg xmlns="http://www.w3.org/2000/svg" width="30" height="30" viewBox="0 0 30 30"><path d="M15.472 17.231c-.76-.571-2.415-1.743-2.415-2.528 0-.918.261-1.373 1.647-2.454 1.421-1.11 2.424-2.571 2.424-4.387 0-1.975-.807-3.77-2.329-4.64h2.156l1.834-1.922h-8.206c-4.165 0-7.634 3.069-7.634 6.447 0 3.452 2.279 6.201 6.195 6.201.271 0 .536-.014.796-.034-.254.489-.436 1.033-.436 1.602 0 .958.527 1.505 1.18 2.14l-1.487.016c-4.769 0-8.106 3.278-8.106 6.429 0 3.099 4.023 5.04 8.792 5.04 5.434 0 8.775-3.087 8.775-6.186 0-2.488-.536-3.74-3.186-5.724zm-9.436-9.536c-.384-2.905 1.102-5.128 3.312-5.064 2.209.069 4.103 2.451 4.484 5.356.381 2.903-.892 4.771-3.103 4.708-2.211-.068-4.312-2.096-4.693-5zm3.828 20.071c-3.297 0-5.676-2.081-5.676-4.59 0-2.453 2.793-4.574 6.089-4.537.768.005 1.484.134 2.133.343 1.792 1.244 3.232 2.02 3.597 3.439.065.286.105.581.105.883 0 2.505-1.615 4.462-6.248 4.462z"/><polygon points="25.123,5.463 25.123,1.678 23.231,1.678 23.231,5.463 19.447,5.463 19.447,7.355 23.231,7.355 23.231,11.141 25.123,11.141 25.123,7.355 28.909,7.355 28.909,5.463"/></svg>