<svg xmlns="http://www.w3.org/2000/svg" width="30" height="30"><path d="M25.834 9.443c.013.24.018.479.018.723 0 7.387-5.624 15.905-15.907 15.905-3.158 0-6.094-.925-8.569-2.511.439.05.884.076 1.333.076 2.623 0 5.03-.892 6.942-2.392-2.445-.046-4.51-1.663-5.221-3.883.343.063.69.101 1.051.101.511 0 1.006-.069 1.473-.195-2.554-.516-4.483-2.774-4.483-5.481v-.07c.754.419 1.617.668 2.534.698-1.501-1-2.488-2.714-2.488-4.654 0-1.023.276-1.985.759-2.81 2.755 3.383 6.876 5.607 11.522 5.842-.097-.41-.145-.836-.145-1.275 0-3.087 2.501-5.588 5.591-5.588 1.604 0 3.057.679 4.077 1.764 1.272-.249 2.471-.717 3.553-1.357-.419 1.308-1.306 2.401-2.458 3.093 1.13-.133 2.206-.436 3.209-.878-.75 1.12-1.696 2.104-2.791 2.892z"/></svg>