<svg xmlns="http://www.w3.org/2000/svg" width="30" height="30" viewBox="0 0 30 30"><g><path d="M21.691 4.701v-2.23c0-.881-.713-1.593-1.593-1.593s-1.594.712-1.594 1.593v2.23h-7.009v-2.23c0-.881-.714-1.593-1.594-1.593s-1.592.712-1.592 1.593v2.23h-4.142v21.028h21.667v-21.028h-4.143zm1.594 18.481h-16.57v-12.427h16.569v12.427z"/><polygon points="8.355,14.831 9.547,16.352 10.57,15.482 10.57,21.073 12.732,21.073 12.732,12.789 10.962,12.789"/><path d="M18.121 19.228c.445-.435.779-.81 1.177-1.311.941-1.17 1.274-1.894 1.274-2.769 0-.76-.306-1.434-.859-1.895-.487-.408-1.066-.591-1.878-.591-.88 0-1.548.154-2.47.567l-.208.093.197 2.119.447-.306c.561-.384 1.116-.586 1.608-.586.546 0 .886.295.886.771 0 .473-.352 1.052-1.215 2-.451.504-1.18 1.219-1.948 1.914l-.104.095v1.743h5.762v-1.866l-2.669.022z"/></g></svg>