<svg xmlns="http://www.w3.org/2000/svg" width="56.693" height="56.693" viewBox="0 0 56.693 56.693"><path d="M28.313 19.65c-5.316 0-9.641 4.325-9.641 9.641s4.325 9.641 9.641 9.641 9.642-4.325 9.642-9.641-4.326-9.641-9.642-9.641zm0 17.283c-4.213 0-7.641-3.428-7.641-7.641s3.428-7.641 7.641-7.641 7.642 3.428 7.642 7.641-3.429 7.641-7.642 7.641zm24.096-11.002c-.062-.446-.414-.796-.861-.855l-5.652-.739c-.389-1.382-.94-2.712-1.645-3.968l3.477-4.523c.274-.357.276-.854.005-1.212-1.358-1.795-2.957-3.395-4.751-4.753-.359-.272-.855-.271-1.213.004l-4.521 3.475c-1.256-.706-2.587-1.259-3.971-1.648l-.74-5.653c-.059-.446-.408-.799-.854-.861-2.268-.313-4.453-.314-6.719-.002-.446.062-.796.414-.855.861l-.74 5.65c-1.386.389-2.72.941-3.979 1.648l-4.522-3.476c-.357-.274-.853-.276-1.212-.005-.815.616-1.607 1.299-2.361 2.037l-.369.369c-.727.742-1.407 1.53-2.022 2.343-.272.359-.27.856.004 1.213l3.475 4.521c-.708 1.26-1.263 2.595-1.653 3.983l-5.651.74c-.447.059-.799.409-.861.855-.136.984-.212 1.995-.227 3.017v.696c.015 1.008.091 2.018.227 3.002.062.446.414.796.861.855l5.651.74c.39 1.388.944 2.723 1.653 3.983l-3.475 4.521c-.274.357-.276.854-.004 1.213.615.813 1.295 1.602 2.029 2.35l.369.37c.747.73 1.539 1.413 2.354 2.029.358.271.855.269 1.212-.005l4.522-3.476c1.259.707 2.593 1.259 3.979 1.648l.74 5.65c.059.447.409.799.855.861 1.13.156 2.257.235 3.35.235 1.099 0 2.232-.08 3.369-.237.446-.062.796-.415.854-.861l.74-5.653c1.384-.39 2.715-.942 3.971-1.648l4.521 3.475c.357.275.854.276 1.213.004 1.795-1.358 3.394-2.958 4.751-4.753.271-.359.27-.855-.005-1.212l-3.477-4.523c.705-1.255 1.256-2.585 1.645-3.968l5.652-.739c.447-.059.799-.409.861-.855.156-1.134.236-2.265.236-3.36s-.08-2.229-.236-3.363zm-1.89 5.693l-5.55.726c-.411.054-.746.355-.842.758-.396 1.645-1.045 3.212-1.931 4.66-.216.353-.192.803.06 1.131l3.414 4.442c-.981 1.211-2.086 2.316-3.297 3.299l-4.44-3.413c-.328-.252-.778-.276-1.132-.06-1.448.888-3.017 1.539-4.663 1.936-.402.097-.704.432-.757.842l-.727 5.551c-1.577.167-3.087.167-4.663.002l-.726-5.549c-.054-.411-.355-.746-.758-.842-1.647-.396-3.219-1.046-4.67-1.935-.353-.215-.803-.192-1.131.06l-4.441 3.414c-.537-.437-1.06-.902-1.556-1.387l-.354-.354c-.487-.498-.952-1.019-1.387-1.554l3.413-4.44c.252-.329.276-.779.06-1.132-.89-1.451-1.542-3.023-1.939-4.673-.097-.403-.432-.704-.842-.758l-5.549-.726c-.072-.662-.111-1.33-.121-1.99v-.667c.01-.67.049-1.342.118-2.004l5.549-.726c.411-.054.746-.355.842-.758.397-1.649 1.049-3.222 1.939-4.673.217-.354.193-.804-.06-1.132l-3.413-4.44c.435-.535.898-1.054 1.38-1.546l.354-.354c.502-.491 1.026-.958 1.563-1.396l4.441 3.414c.328.251.778.276 1.131.06 1.451-.888 3.022-1.539 4.67-1.935.403-.096.705-.432.758-.842l.726-5.549c1.576-.166 3.086-.166 4.663.002l.727 5.551c.054.41.355.745.757.842 1.646.397 3.214 1.048 4.663 1.936.352.216.803.193 1.132-.06l4.44-3.413c1.211.982 2.316 2.088 3.297 3.299l-3.414 4.442c-.252.328-.276.778-.06 1.131.886 1.448 1.536 3.015 1.931 4.66.097.403.432.704.842.758l5.55.726c.083.789.125 1.57.125 2.333s-.038 1.544-.122 2.333z"/></svg>