<?xml version="1.0" encoding="utf-8"?>
<!-- Generator: Adobe Illustrator 16.0.0, SVG Export Plug-In . SVG Version: 6.00 Build 0)  -->
<!DOCTYPE svg PUBLIC "-//W3C//DTD SVG 1.1//EN" "http://www.w3.org/Graphics/SVG/1.1/DTD/svg11.dtd">
<svg version="1.1" id="Layer_1" xmlns="http://www.w3.org/2000/svg" xmlns:xlink="http://www.w3.org/1999/xlink" x="0px" y="0px"
	 width="56.693px" height="56.693px" viewBox="0 0 56.693 56.693" enable-background="new 0 0 56.693 56.693" xml:space="preserve">
<path d="M28.313,38.933c-5.315,0-9.642-4.326-9.642-9.642s4.326-9.641,9.642-9.641s9.642,4.325,9.642,9.641
	S33.629,38.933,28.313,38.933z M52.409,25.931c-0.062-0.446-0.414-0.797-0.861-0.855l-5.651-0.739
	c-0.39-1.382-0.94-2.712-1.646-3.968l3.478-4.522c0.273-0.357,0.275-0.854,0.005-1.213c-1.358-1.795-2.957-3.395-4.751-4.753
	c-0.359-0.271-0.855-0.271-1.213,0.004l-4.521,3.476c-1.256-0.706-2.587-1.259-3.971-1.648l-0.74-5.652
	c-0.059-0.446-0.408-0.8-0.854-0.861c-2.269-0.313-4.453-0.314-6.72-0.002c-0.445,0.062-0.796,0.414-0.854,0.861l-0.74,5.649
	c-1.386,0.39-2.72,0.941-3.979,1.648l-4.522-3.477c-0.357-0.273-0.853-0.275-1.212-0.005c-0.815,0.616-1.607,1.299-2.361,2.037
	l-0.369,0.369c-0.727,0.742-1.406,1.53-2.021,2.343c-0.272,0.359-0.271,0.856,0.004,1.213l3.475,4.521
	c-0.708,1.26-1.263,2.595-1.652,3.982l-5.651,0.74c-0.447,0.06-0.799,0.409-0.861,0.855c-0.136,0.983-0.212,1.995-0.227,3.017v0.696
	c0.015,1.008,0.091,2.018,0.227,3.002c0.062,0.446,0.414,0.796,0.861,0.854l5.651,0.74c0.39,1.388,0.943,2.723,1.652,3.983
	l-3.475,4.521c-0.274,0.357-0.276,0.854-0.004,1.213c0.615,0.813,1.295,1.603,2.029,2.351l0.368,0.37
	c0.747,0.729,1.539,1.413,2.354,2.028c0.358,0.271,0.854,0.27,1.212-0.005l4.522-3.476c1.259,0.707,2.593,1.259,3.979,1.647
	l0.74,5.65c0.059,0.447,0.409,0.799,0.854,0.861c1.13,0.155,2.258,0.234,3.351,0.234c1.099,0,2.231-0.08,3.369-0.236
	c0.445-0.062,0.796-0.415,0.854-0.861l0.74-5.653c1.384-0.39,2.715-0.941,3.971-1.647l4.521,3.475
	c0.356,0.275,0.854,0.276,1.213,0.004c1.795-1.357,3.394-2.958,4.751-4.753c0.271-0.359,0.27-0.854-0.005-1.212l-3.478-4.523
	c0.705-1.255,1.256-2.585,1.646-3.968l5.651-0.739c0.447-0.059,0.8-0.408,0.861-0.854c0.156-1.134,0.236-2.265,0.236-3.36
	C52.645,28.199,52.565,27.065,52.409,25.931z"/>
</svg>
