<svg xmlns="http://www.w3.org/2000/svg" width="30" height="30" viewBox="0 0 30 30"><path d="M24.995 6.708v-2.714l-1.74.006c-3.55.012-5.034.02-8.255 2.206-3.223-2.186-4.707-2.194-8.256-2.206l-1.74-.007v2.714h-4.12v19.293h28.231v-19.292h-4.12zm-8.721 1.711c2.443-1.7 3.386-1.845 6.172-1.866v12.889c-2.531.02-3.986.139-6.172 1.396v-12.419zm-8.721-1.866c2.785.021 3.728.167 6.173 1.867v12.418c-2.187-1.257-3.642-1.376-6.173-1.396v-12.889zm-4.12 2.704h1.571v12.723l1.746.008c3.161.012 4.158.019 6.375 1.465h-9.692v-14.196zm23.133 14.195h-9.691c2.216-1.446 3.212-1.453 6.374-1.465l1.746-.008v-12.722h1.571v14.195z"/></svg>