<svg xmlns="http://www.w3.org/2000/svg" width="30" height="30" viewBox="0 0 30 30"><path d="M0 0v30h30v-30h-30zm21.963 11.901l.011.464c0 4.747-3.613 10.223-10.222 10.223-2.03 0-3.917-.594-5.508-1.614.283.033.568.05.859.05 1.684 0 3.231-.574 4.46-1.537-1.571-.028-2.899-1.067-3.355-2.494.22.042.444.063.676.063.329 0 .646-.043.946-.127-1.642-.328-2.881-1.782-2.881-3.522v-.045c.486.27 1.039.432 1.627.449-.964-.644-1.597-1.744-1.597-2.99 0-.658.178-1.274.486-1.807 1.771 2.175 4.42 3.604 7.404 3.753-.06-.262-.093-.536-.093-.817 0-1.984 1.609-3.592 3.593-3.592 1.032 0 1.967.437 2.622 1.133.818-.16 1.587-.459 2.283-.87-.271.839-.838 1.544-1.58 1.986.727-.086 1.419-.278 2.063-.564-.482.72-1.092 1.353-1.794 1.858z"/></svg>