<svg xmlns="http://www.w3.org/2000/svg" width="30" height="30"><path d="M0 0v30h30v-30h-30zm16.599 10.009c0 1.231-.682 2.223-1.645 2.976-.941.733-1.118 1.043-1.118 1.665 0 .533 1.123 1.328 1.639 1.716 1.797 1.347 2.162 2.195 2.162 3.883 0 2.104-2.268 4.196-5.954 4.196-3.236 0-5.966-1.316-5.966-3.419 0-2.138 2.264-4.362 5.5-4.362l1.01-.01c-.442-.432-.8-.802-.8-1.452 0-.386.123-.755.295-1.087-.175.015-.355.023-.54.023-2.657 0-4.204-1.865-4.204-4.208 0-2.292 2.355-4.374 5.18-4.374h5.567l-1.245 1.304h-1.462c1.033.591 1.581 1.808 1.581 3.149zm7.993-.345h-2.568v2.569h-1.284v-2.569h-2.567v-1.283h2.567v-2.569h1.284v2.569h2.568v1.283zm-12.642 7.655c-2.237-.024-4.131 1.414-4.131 3.079 0 1.701 1.615 3.115 3.851 3.115 3.144 0 4.239-1.328 4.239-3.027 0-.206-.025-.406-.071-.6-.247-.964-1.225-1.49-2.439-2.334-.442-.142-.928-.228-1.449-.233zm-.631-10.86c-1.5-.043-2.508 1.465-2.247 3.436.258 1.97 1.684 3.347 3.185 3.393 1.501.043 2.363-1.225 2.105-3.194-.258-1.972-1.543-3.588-3.043-3.635z"/></svg>