<svg xmlns="http://www.w3.org/2000/svg" width="30" height="30"><path d="M6.899 4.324v5.261h-5.149v12.242c0 2.122 1.727 3.848 3.849 3.848h18.804c2.122 0 3.849-1.726 3.849-3.848v-17.503h-21.353zm0 17.504c0 .716-.583 1.299-1.301 1.299-.717 0-1.3-.583-1.3-1.299v-9.693h2.601v9.693zm18.803 0c0 .716-.583 1.299-1.3 1.299h-15.18c.146-.406.226-.844.226-1.299v-14.955h16.254v14.955z"/><rect x="11.413" y="9.585" width="12.324" height="2.549"/><rect x="11.413" y="17.921" width="12.324" height="2.549"/><rect x="11.413" y="13.753" width="12.324" height="2.549"/></svg>