<svg xmlns="http://www.w3.org/2000/svg" width="30" height="29.996" viewBox="0 0 30 29.996"><g><path d="M15.167 5.309c.108.131.129.276-.049.424-.216.18-.516.029-.775-.018-1.25-.237-5.039-.913-6.534.329-.818.683-.533 1.554-1.384 2.262-.854.71-1.656.27-2.477.953-1.494 1.242-1.513 5.092-1.507 6.363.001.265.095.586-.122.767-.178.148-.318.101-.425-.029-.401-.481-2.754-8.593 1.283-11.955 4.036-3.361 11.586.423 11.99.904zm-13.485-1.026c.929 0 1.682-.752 1.682-1.683 0-.928-.752-1.681-1.682-1.681s-1.682.753-1.682 1.681c0 .931.753 1.683 1.682 1.683zM19.061 23.013c-.166.025-.303-.03-.34-.261-.041-.277.24-.456.416-.655.845-.949 3.378-3.847 3.08-5.769-.163-1.052-1.055-1.254-1.226-2.35-.17-1.098.622-1.56.458-2.613-.297-1.923-3.588-3.919-4.681-4.569-.227-.134-.552-.221-.594-.498-.036-.231.079-.325.244-.352.621-.096 8.786 2.062 9.59 7.255.804 5.191-6.327 9.716-6.947 9.812zm9.257-8.486c.928 0 1.682-.754 1.682-1.682 0-.93-.754-1.682-1.682-1.682-.93 0-1.684.752-1.684 1.682 0 .928.754 1.682 1.684 1.682zM2.049 17.755c.063-.156.179-.244.396-.16.261.101.276.436.356.687.395 1.209 1.632 5.593 5.525 7.121 3.892 1.527 7.78-.849 8.891-1.463.232-.13.468-.366.729-.263.216.085.242.229.18.388-.229.583-6.205 6.552-11.095 4.633-4.888-1.919-5.208-10.358-4.982-10.943zm7.129 6.982c.928.005 1.687-.739 1.692-1.668.008-.93-.739-1.691-1.667-1.697-.927-.007-1.687.739-1.694 1.669-.008.929.739 1.686 1.669 1.696z"/></g></svg>