<svg xmlns="http://www.w3.org/2000/svg" width="30" height="30" viewBox="0 0 30 30"><g><polygon points="13.326,18.232 13.326,15.045 9.91,15.045 9.91,11.63 6.723,11.63 6.723,15.045 3.293,15.045 3.293,18.232 6.723,18.232 6.723,21.676 9.91,21.676 9.91,18.232"/><polygon points="18.267,16.668 15.081,16.668 15.081,20.083 11.65,20.083 11.65,23.269 15.081,23.269 15.081,26.715 18.267,26.715 18.267,23.269 21.682,23.269 21.682,20.083 18.267,20.083"/><polygon points="26.707,11.71 23.291,11.71 23.291,8.294 20.104,8.294 20.104,11.71 16.674,11.71 16.674,14.897 20.104,14.897 20.104,18.342 23.291,18.342 23.291,14.897 26.707,14.897"/><polygon points="11.747,13.332 14.933,13.332 14.933,9.888 18.35,9.888 18.35,6.702 14.933,6.702 14.933,3.285 11.747,3.285 11.747,6.702 8.318,6.702 8.318,9.888 11.747,9.888"/></g></svg>