<svg xmlns="http://www.w3.org/2000/svg" width="30" height="30" viewBox="0 0 30 30">
<path d=" M 6.61 10.65 C 10.44 4.03 21.77 3.49 25.58 10.40 C 28.17 15.57 25.95 23.62 19.94 25.23 C 17.83 25.93 15.83 24.83 14.06 23.80 C 13.41 26.51 12.62 29.20 11.40 31.72 C 8.76 31.25 9.80 28.79 9.92 27.15 C 10.80 23.17 12.10 19.20 11.65 15.06 C 11.36 12.83 14.12 10.54 16.07 12.21 C 17.48 15.27 14.62 18.39 15.32 21.50 C 16.63 23.63 19.78 22.90 20.97 21.05 C 22.89 18.16 23.66 14.07 22.02 10.90 C 18.96 6.24 10.72 7.55 8.86 12.70 C 7.33 15.68 9.40 18.78 9.36 21.83 C 4.75 20.28 4.32 14.27 6.61 10.65 Z" />
</svg>
