<svg xmlns="http://www.w3.org/2000/svg" width="30" height="30"><path d="M24.912 11.985v5.329h-2.666v-5.329h-5.326v-2.664h5.326v-5.329h2.666v5.329h5.088v-9.385h-30v6.21c1.574-1.311 3.707-2.154 6.033-2.154h9.351l-2.086 2.191h-2.456c1.732.991 2.652 3.037 2.652 5.289 0 2.068-1.145 3.734-2.764 5-1.576 1.231-1.874 1.75-1.874 2.795 0 .898 1.886 2.232 2.753 2.884 3.02 2.261 3.628 3.688 3.628 6.523 0 .423-.059.845-.164 1.262h14.927v-17.951h-5.088zm-15.174-.371c-.433-3.309-2.592-6.026-5.112-6.104-2.52-.072-4.213 2.461-3.774 5.772.434 3.309 2.83 5.622 5.348 5.698 2.523.073 3.972-2.056 3.538-5.366zm-1.619 12.532c-.739-.239-1.56-.383-2.433-.39-2.321-.026-4.418.89-5.686 2.251v3.93h12.264c.043-.281.074-.566.074-.862 0-.345-.043-.683-.121-1.008-.414-1.62-2.057-2.503-4.098-3.921zm-8.119-.559c1.292-.585 2.795-.936 4.453-.936l1.699-.015c-.744-.726-1.345-1.35-1.345-2.439 0-.648.206-1.269.493-1.827-.294.024-.598.039-.906.039-1.783 0-3.254-.516-4.395-1.368v6.546z"/></svg>