<svg xmlns="http://www.w3.org/2000/svg" width="30" height="30"><path d="M0-.063v30h30v-30h-30zm23.621 11.051l.01.576c0 5.876-4.471 12.653-12.653 12.653-2.511 0-4.849-.734-6.817-1.998.35.041.703.062 1.063.062 2.083 0 4.002-.712 5.522-1.903-1.947-.036-3.589-1.321-4.157-3.088.272.053.551.078.841.078.404 0 .797-.053 1.169-.156-2.033-.407-3.569-2.207-3.569-4.36v-.058c.604.334 1.287.536 2.017.556-1.192-.795-1.976-2.157-1.976-3.7 0-.814.219-1.576.6-2.237 2.193 2.693 5.472 4.464 9.168 4.647-.075-.326-.116-.664-.116-1.013 0-2.457 1.992-4.447 4.448-4.447 1.277 0 2.434.541 3.248 1.403 1.011-.197 1.961-.568 2.824-1.078-.337 1.039-1.04 1.912-1.957 2.46.899-.105 1.756-.345 2.555-.7-.596.894-1.353 1.677-2.22 2.303z"/></svg>